PathFileType	4	(x/y/z)	S10_P20_T16
DataRate	CameraRate	NumFrames	NumMarkers	Units	OrigDataRate	OrigDataStartFrame	OrigNumFrames
240	240	8	51	mm	240	150	398
Frame#	Time	Sternum			R.Acromium			L.Acromium			Top.Head			R.ASIS			L.ASIS			R.PSIS			L.PSIS			R.Great.Tro			L.Great.Tro			R.Iliac.Crest			L.Iliac.Crest			V.Sacral			R.Thigh.Upper.Post			R.Thigh.Lower.Ant			R.Thigh.Lower.Post			R.Thigh.Upper.Ant			R.Knee.Lat			R.Knee.Med			R.Shank.Upper.Post			R.Shank.Lower.Ant			R.Shank.Lower.Post			R.Shank.Upper.Ant			R.Ankle.Lat			R.Ankle.Med			R.Heel.Upper			R.Heel.Med			R.Heel.Lat			R.Toe.Lat			R.Toe.Med			R.Toe.Tip			L.Thigh.Upper.Post			L.Thigh.Lower.Ant			L.Thigh.Lower.Post			L.Thigh.Upper.Ant			L.Knee.Lat			L.Knee.Med			L.Shank.Upper.Post			L.Shank.Lower.Ant			L.Shank.Lower.Post			L.Shank.Upper.Ant			L.Ankle.Lat			L.Ankle.Med			L.Heel.Upper			L.Heel.Med			L.Heel.Lat			L.Toe.Lat			L.Toe.Med			L.Toe.Tip			Cervical.Spine			Back			
		X1	Y1	Z1	X2	Y2	Z2	X3	Y3	Z3	X4	Y4	Z4	X5	Y5	Z5	X6	Y6	Z6	X7	Y7	Z7	X8	Y8	Z8	X9	Y9	Z9	X10	Y10	Z10	X11	Y11	Z11	X12	Y12	Z12	X13	Y13	Z13	X14	Y14	Z14	X15	Y15	Z15	X16	Y16	Z16	X17	Y17	Z17	X18	Y18	Z18	X19	Y19	Z19	X20	Y20	Z20	X21	Y21	Z21	X22	Y22	Z22	X23	Y23	Z23	X24	Y24	Z24	X25	Y25	Z25	X26	Y26	Z26	X27	Y27	Z27	X28	Y28	Z28	X29	Y29	Z29	X30	Y30	Z30	X31	Y31	Z31	X32	Y32	Z32	X33	Y33	Z33	X34	Y34	Z34	X35	Y35	Z35	X36	Y36	Z36	X37	Y37	Z37	X38	Y38	Z38	X39	Y39	Z39	X40	Y40	Z40	X41	Y41	Z41	X42	Y42	Z42	X43	Y43	Z43	X44	Y44	Z44	X45	Y45	Z45	X46	Y46	Z46	X47	Y47	Z47	X48	Y48	Z48	X49	Y49	Z49	X50	Y50	Z50	X51	Y51	Z51	

150	0.62083	-437.16	1268.8	302.52	-572.84	1420.1	453.72	-554.63	1471.5	162.51	-564.98	1748.7	315.09	-484.74	1004.9	401.16	-499.21	1008.1	168.96	-691.34	1025.1	325.66	-689.83	1028.4	244.72	-546.21	931.26	479.04	-568.57	941.25	117.96	-578.24	1085.3	450.24	-563.9	1083	144.86	-714.08	993.43	291.4	-483.7	723.67	463.43	-418.59	660.73	414.73	-472.69	635.38	450.08	-429.33	751.43	422.74	-453.81	512.74	401.41	-479.38	522.4	277.8	-530.95	289.73	407.09	-474.82	223.54	378.42	-536.15	215.94	398.77	-463.3	299.91	385.51	-532.13	111.65	372.74	-536.22	124.07	294.52	-605.61	66.716	334.88	-598.57	37.732	308.31	-595.8	42.783	369.36	-419.1	40.077	396.44	-401.31	42.587	282.88	-339.49	57.243	319.86	-605.28	662.06	120.22	-528.5	582.26	121.6	-599.77	567.14	134.46	-527.56	672.14	106.16	-573.75	489.26	129.05	-529.57	466.79	253.06	-754.9	390.53	138.84	-777.33	281.61	144.41	-812.57	336.73	147.67	-721.24	335	135.61	-884.37	230.75	157.92	-861.63	228.15	242.07	-924.68	276.38	200.04	-945.16	261.19	239.63	-957.56	257.6	176.95	-918.64	84.609	155.56	-880.54	84.897	257.85	-855.52	36.365	215.67	-638.16	1490.5	312.24	-722.73	1283.4	284.98
151	0.625	-432.17	1268.9	302.18	-567.19	1420.4	453.79	-550.21	1471.6	162.49	-559.83	1748.9	315.01	-479.52	1005	401.09	-494.45	1008.3	168.9	-686.28	1025.2	326.19	-684.96	1028.5	245.26	-540.94	931.35	479.17	-563.85	941.44	118.19	-572.78	1085.5	450.46	-559.4	1083.1	144.94	-709.1	993.55	292.02	-479.62	723.45	463.52	-414.69	660.23	414.93	-468.97	635.11	450.15	-425.01	750.99	422.99	-450.75	512.32	401.44	-475.8	522.09	277.79	-529.31	289.87	406.96	-473.61	223.28	378.38	-535.02	216.11	398.61	-461.56	299.53	385.41	-531.64	111.86	372.67	-535.69	124.32	294.39	-605.49	66.885	334.77	-598.49	37.879	308.26	-595.73	43.006	369.28	-418.99	40.131	396.41	-401.16	42.467	282.8	-339.33	56.91	319.84	-597.72	661.97	120.04	-520.17	582.92	120.97	-591.23	567.12	134.2	-520.17	672.83	105.62	-564.17	489.8	128.3	-519.77	467.31	252.43	-745.52	392.27	137.88	-768.75	283.53	143.54	-803.75	338.9	146.64	-712.29	336.5	134.82	-876.19	233.44	156.88	-853.48	230.73	241.24	-915.75	279.61	199	-936.46	264.79	238.68	-948.97	261.25	176	-912.42	87.176	154.63	-873.93	86.797	257	-850.11	36.814	214.42	-633.06	1490.7	312.61	-717.77	1283.6	285.71
152	0.62917	-427.21	1269.1	301.78	-561.52	1420.6	453.84	-545.85	1471.7	162.44	-554.68	1749.2	314.92	-474.32	1005.1	401.01	-489.71	1008.6	168.85	-681.24	1025.4	326.73	-680.1	1028.6	245.79	-535.71	931.44	479.29	-559.15	941.71	118.41	-567.34	1085.6	450.68	-554.91	1083.3	145.03	-704.14	993.72	292.62	-475.68	723.24	463.58	-410.91	659.72	415.12	-465.39	634.85	450.2	-420.8	750.53	423.24	-447.83	511.91	401.44	-472.42	521.79	277.76	-527.76	290.01	406.82	-472.46	223.05	378.34	-533.95	216.29	398.45	-459.91	299.17	385.31	-531.17	112.08	372.6	-535.16	124.57	294.26	-605.36	67.054	334.66	-598.41	38.024	308.19	-595.66	43.236	369.21	-418.89	40.181	396.37	-401.01	42.352	282.72	-339.17	56.591	319.82	-590.2	661.99	119.91	-511.89	583.69	120.37	-582.72	567.22	134.01	-512.84	673.61	105.09	-554.61	490.45	127.57	-510.08	467.99	251.85	-736.12	393.97	136.95	-760.06	285.4	142.71	-794.84	340.98	145.65	-703.28	338	134.06	-867.89	236	155.9	-845.16	233.17	240.42	-906.81	282.6	198.06	-927.73	268.06	237.78	-940.29	264.62	175.09	-905.72	89.669	153.61	-866.94	88.552	256.1	-844.13	37.408	213.09	-627.97	1491	312.97	-712.84	1283.9	286.47
153	0.63333	-422.26	1269.3	301.34	-555.84	1421	453.87	-541.54	1471.9	162.37	-549.53	1749.5	314.82	-469.14	1005.2	400.92	-484.97	1008.9	168.79	-676.22	1025.7	327.26	-675.25	1028.8	246.32	-530.53	931.54	479.39	-554.46	942.05	118.6	-561.91	1085.8	450.89	-550.42	1083.5	145.11	-699.19	993.93	293.21	-471.85	723.03	463.63	-407.26	659.2	415.31	-461.93	634.6	450.22	-416.67	750.06	423.48	-445.03	511.53	401.44	-469.23	521.5	277.71	-526.27	290.16	406.67	-471.36	222.85	378.28	-532.93	216.48	398.27	-458.33	298.85	385.21	-530.71	112.3	372.52	-534.66	124.83	294.13	-605.23	67.224	334.53	-598.33	38.167	308.12	-595.58	43.474	369.13	-418.8	40.225	396.33	-400.87	42.243	282.64	-339.02	56.285	319.8	-582.71	662.1	119.83	-503.67	584.56	119.8	-574.26	567.43	133.89	-505.56	674.47	104.57	-545.1	491.22	126.88	-500.49	468.83	251.33	-726.71	395.62	136.03	-751.26	287.2	141.92	-785.85	342.97	144.69	-694.2	339.49	133.33	-859.47	238.42	154.98	-836.69	235.46	239.62	-897.87	285.34	197.21	-918.97	270.99	236.94	-931.54	267.69	174.22	-898.5	92.067	152.49	-859.54	90.149	255.13	-837.54	38.135	211.68	-622.9	1491.4	313.31	-707.94	1284.2	287.25
154	0.6375	-417.34	1269.5	300.86	-550.14	1421.3	453.88	-537.29	1472.1	162.28	-544.37	1749.8	314.71	-463.98	1005.4	400.83	-480.23	1009.3	168.75	-671.22	1025.9	327.78	-670.41	1029.1	246.83	-525.41	931.66	479.47	-549.77	942.47	118.79	-556.51	1086	451.1	-545.94	1083.8	145.19	-694.25	994.2	293.78	-468.14	722.83	463.65	-403.71	658.68	415.48	-458.6	634.36	450.22	-412.63	749.58	423.71	-442.33	511.16	401.42	-466.24	521.24	277.63	-524.86	290.33	406.51	-470.32	222.67	378.22	-531.95	216.68	398.1	-456.83	298.56	385.1	-530.27	112.53	372.43	-534.17	125.09	294	-605.08	67.395	334.39	-598.24	38.31	308.04	-595.51	43.719	369.04	-418.71	40.262	396.29	-400.74	42.136	282.57	-338.87	55.99	319.78	-575.25	662.32	119.8	-495.51	585.52	119.25	-565.82	567.76	133.83	-498.33	675.42	104.07	-535.62	492.1	126.21	-490.99	469.82	250.86	-717.3	397.23	135.15	-742.35	288.93	141.17	-776.78	344.87	143.79	-685.07	340.95	132.63	-850.94	240.68	154.13	-828.07	237.59	238.84	-888.94	287.82	196.44	-910.19	273.56	236.17	-922.71	270.46	173.39	-890.76	94.348	151.29	-851.73	91.573	254.1	-830.33	38.976	210.19	-617.83	1491.7	313.64	-703.05	1284.6	288.05
155	0.64167	-412.43	1269.8	300.34	-544.43	1421.8	453.87	-533.09	1472.3	162.16	-539.21	1750.2	314.59	-458.84	1005.7	400.74	-475.49	1009.7	168.71	-666.23	1026.2	328.28	-665.56	1029.4	247.33	-520.35	931.79	479.54	-545.09	942.96	118.95	-551.14	1086.3	451.31	-541.46	1084.2	145.28	-689.32	994.51	294.33	-464.55	722.64	463.65	-400.27	658.16	415.65	-455.38	634.13	450.19	-408.67	749.09	423.92	-439.75	510.82	401.38	-463.46	521.01	277.55	-523.5	290.51	406.34	-469.32	222.52	378.14	-531.01	216.9	397.91	-455.39	298.31	384.98	-529.83	112.77	372.35	-533.7	125.36	293.86	-604.92	67.569	334.24	-598.14	38.451	307.95	-595.43	43.973	368.94	-418.63	40.293	396.24	-400.6	42.032	282.5	-338.72	55.704	319.76	-567.82	662.64	119.81	-487.39	586.58	118.72	-557.43	568.19	133.82	-491.16	676.45	103.59	-526.2	493.09	125.58	-481.57	470.93	250.42	-707.9	398.77	134.29	-733.33	290.57	140.46	-767.64	346.65	142.93	-675.88	342.4	131.96	-842.29	242.77	153.32	-819.3	239.54	238.07	-880.01	290.03	195.77	-901.38	275.76	235.44	-913.82	272.9	172.6	-882.5	96.492	149.99	-843.51	92.816	252.99	-822.5	39.91	208.63	-612.77	1492.2	313.95	-698.19	1284.9	288.88
156	0.64583	-407.54	1270.2	299.78	-538.71	1422.2	453.84	-528.93	1472.6	162.04	-534.05	1750.6	314.47	-453.72	1005.9	400.67	-470.75	1010.2	168.68	-661.25	1026.6	328.77	-660.73	1029.8	247.81	-515.36	931.93	479.6	-540.39	943.53	119.1	-545.81	1086.6	451.5	-536.98	1084.6	145.38	-684.4	994.87	294.86	-461.06	722.47	463.63	-396.94	657.64	415.8	-452.27	633.91	450.13	-404.79	748.6	424.12	-437.25	510.5	401.32	-460.86	520.81	277.44	-522.21	290.69	406.17	-468.37	222.41	378.05	-530.11	217.13	397.73	-454.02	298.09	384.86	-529.41	113.01	372.25	-533.26	125.64	293.73	-604.75	67.748	334.08	-598.04	38.593	307.84	-595.35	44.235	368.84	-418.56	40.318	396.19	-400.48	41.929	282.44	-338.57	55.428	319.73	-560.43	663.05	119.85	-479.34	587.73	118.22	-549.07	568.73	133.86	-484.03	677.55	103.12	-516.84	494.17	124.97	-472.24	472.16	250.02	-698.5	400.26	133.48	-724.21	292.13	139.79	-758.42	348.31	142.13	-666.64	343.81	131.32	-833.51	244.69	152.58	-810.38	241.3	237.31	-871.1	291.95	195.18	-892.56	277.59	234.77	-904.86	275.01	171.84	-873.73	98.481	148.62	-834.87	93.871	251.8	-814.02	40.913	206.99	-607.73	1492.6	314.26	-693.35	1285.4	289.73
157	0.65	-402.67	1270.5	299.19	-532.98	1422.7	453.8	-524.81	1472.9	161.89	-528.88	1751	314.33	-448.63	1006.2	400.6	-466.01	1010.8	168.67	-656.28	1027	329.23	-655.89	1030.2	248.28	-510.44	932.1	479.64	-535.69	944.18	119.24	-540.51	1086.9	451.7	-532.5	1085.1	145.48	-679.49	995.28	295.35	-457.66	722.32	463.6	-393.69	657.13	415.94	-449.26	633.72	450.06	-400.98	748.12	424.31	-434.85	510.22	401.24	-458.46	520.64	277.32	-520.97	290.9	406	-467.46	222.32	377.95	-529.25	217.37	397.54	-452.72	297.91	384.73	-529	113.26	372.15	-532.84	125.92	293.59	-604.56	67.932	333.9	-597.93	38.735	307.73	-595.27	44.505	368.73	-418.5	40.336	396.14	-400.35	41.827	282.38	-338.43	55.159	319.71	-553.06	663.55	119.93	-471.34	588.96	117.75	-540.75	569.36	133.94	-476.95	678.73	102.67	-507.54	495.34	124.4	-462.97	473.5	249.64	-689.12	401.67	132.71	-715	293.59	139.16	-749.13	349.85	141.39	-657.36	345.18	130.7	-824.6	246.42	151.88	-801.32	242.86	236.57	-862.19	293.59	194.66	-883.72	279.04	234.14	-895.84	276.77	171.11	-864.46	100.3	147.16	-825.81	94.734	250.52	-804.92	41.962	205.29	-602.69	1493.1	314.55	-688.52	1285.8	290.6
